Coordinates
version=1
nRows=12
nColumns=28
inDegrees=yes

Units are S.I. units (second, meters, Newtons, ...)
Angles are in degrees.

endheader
time	pelvis_tilt	pelvis_list	pelvis_rotation	pelvis_tx	pelvis_ty	pelvis_tz	hip_flexion_r	hip_adduction_r	hip_rotation_r	knee_angle_r	ankle_angle_r	subtalar_angle_r	mtp_angle_r	hip_flexion_l	hip_adduction_l	hip_rotation_l	knee_angle_l	socket_flexion	socket_adduction	socket_rotation	socket_tx	socket_ty	socket_tz	foot_flex	lumbar_extension	lumbar_bending	lumbar_rotation
      0.00000000	     -1.14966347	     -9.55066134	    -12.78852676	     -0.88209669	      0.98256645	      0.32562662	    -22.79546697	     10.13794728	     15.20393070	     -7.34733740	      9.19952600	    -14.91537691	     17.64797379	     26.95747617	    -14.29528031	      8.42862267	     -6.11950337	      0.00000000	      0.00000000	      0.00000000	      0.00000000	     -0.00304464	      0.00000000	      2.41176184	    -11.34981722	      6.17215805	     19.03872592
      0.00416667	     -1.21240367	     -9.59033785	    -12.69727614	     -0.87683032	      0.98181252	      0.32515339	    -22.92639938	     10.16099588	     15.27570117	     -7.52720352	      9.17411749	    -14.90646983	     17.65170810	     26.85882730	    -14.21773391	      8.40686710	     -6.17821949	      0.00000000	      0.00000000	      0.00000000	      0.00000000	     -0.00336470	      0.00000000	      2.31670859	    -11.21853879	      6.22800598	     19.05180643
      0.00833333	     -1.29078158	     -9.79376850	    -12.79581234	     -0.87172291	      0.98114581	      0.32479710	    -22.90144411	     10.31299602	     15.37459467	     -8.06649392	      8.99713973	    -14.98255219	     17.67433431	     26.65284271	    -14.39272529	      8.34008783	     -6.08725233	      0.00000000	      0.00000000	      0.00000000	      0.00000000	     -0.00395775	      0.00000000	      1.90205878	    -11.20285854	      6.47246211	     19.17198781
      0.01250000	     -1.37374709	     -9.87231820	    -12.79159677	     -0.86612212	      0.98040042	      0.32442128	    -22.94292447	     10.36464408	     15.43038039	     -8.44782240	      8.87602831	    -15.02915892	     17.67503690	     26.47348119	    -14.40005943	      8.31229684	     -6.03104280	      0.00000000	      0.00000000	      0.00000000	      0.00000000	     -0.00444752	      0.00000000	      1.60165277	    -11.08053865	      6.56201852	     19.19962033
      0.01666667	     -1.44567102	     -9.91949272	    -12.71355212	     -0.86026157	      0.97962433	      0.32391713	    -23.05125221	     10.39319679	     15.49434582	     -8.70489531	      8.81740342	    -15.03459428	     17.67371611	     26.32844680	    -14.32593983	      8.28860670	     -6.07008072	      0.00000000	      0.00000000	      0.00000000	      0.00000000	     -0.00490891	      0.00000000	      1.51139180	    -10.92820414	      6.62923343	     19.20660768
      0.02083333	     -1.54132895	    -10.06029598	    -12.82334907	     -0.85455159	      0.97892549	      0.32360629	    -22.95160501	     10.48732140	     15.47854684	     -9.38176438	      8.53332215	    -15.13842536	     17.65137614	     26.07982048	    -14.44884160	      8.23241374	     -5.94521923	      0.00000000	      0.00000000	      0.00000000	      0.00000000	     -0.00559743	      0.00000000	      1.04046357	    -10.86396181	      6.79657371	     19.22120360
      0.02500000	     -1.64431025	    -10.16614555	    -12.86145765	     -0.84863614	      0.97818936	      0.32319746	    -22.90554441	     10.56232762	     15.54237967	     -9.92887698	      8.32304820	    -15.21465436	     17.65261550	     25.88709767	    -14.49458192	      8.19616491	     -5.91318759	      0.00000000	      0.00000000	      0.00000000	      0.00000000	     -0.00622131	      0.00000000	      0.78854679	    -10.74439934	      6.92819833	     19.26130500
      0.02916667	     -1.72139774	    -10.21201415	    -12.78660144	     -0.84240857	      0.97743527	      0.32266677	    -22.98504522	     10.59240377	     15.62397572	    -10.25586433	      8.23013300	    -15.22759054	     17.65186193	     25.71036005	    -14.42079641	      8.19789883	     -5.94953704	      0.00000000	      0.00000000	      0.00000000	      0.00000000	     -0.00686234	      0.00000000	      0.67076381	    -10.56746786	      7.00248678	     19.27122043
      0.03333333	     -2.13922125	    -10.40478335	    -13.08274742	     -0.83644600	      0.97645805	      0.32259909	    -22.52950095	     10.78699842	     15.92571171	    -11.05771147	      7.73063575	    -15.70921207	     17.91576837	     25.74624912	    -14.71940644	      8.12887352	     -5.88028169	      0.00000000	      0.00000000	      0.00000000	      0.00000000	     -0.00775560	      0.00000000	      0.26720977	    -10.14059296	      7.26917861	     19.62022278
      0.03750000	     -2.20279374	    -10.42698358	    -12.98413928	     -0.83008270	      0.97577797	      0.32198435	    -22.61656013	     10.79176504	     16.01097172	    -11.36533157	      7.63862904	    -15.70737118	     17.91101970	     25.55522784	    -14.60236948	      8.15986231	     -5.93996615	      0.00000000	      0.00000000	      0.00000000	      0.00000000	     -0.00842758	      0.00000000	      0.16789945	     -9.97587550	      7.32782350	     19.60702975
      0.04166667	     -2.27403930	    -10.49893102	    -13.04217393	     -0.82401958	      0.97525829	      0.32159451	    -22.41615054	     10.84454720	     15.88066427	    -12.23172618	      7.11918110	    -15.85362184	     17.87559416	     25.26967243	    -14.62451180	      8.16422295	     -5.85796024	      0.00000000	      0.00000000	      0.00000000	      0.00000000	     -0.00925315	      0.00000000	     -0.27870193	     -9.90766364	      7.42082958	     19.49062119
      0.04583333	     -2.36690053	    -10.51864799	    -13.01939942	     -0.81774042	      0.97467576	      0.32112980	    -22.31094754	     10.86120959	     15.87557004	    -12.84420708	      6.76571093	    -15.94321140	     17.88334992	     25.05508005	    -14.56085618	      8.21617473	     -5.85274567	      0.00000000	      0.00000000	      0.00000000	      0.00000000	     -0.01001014	      0.00000000	     -0.54809458	     -9.74591279	      7.45987542	     19.42826729
